<mxfile host="Electron" modified="2024-04-22T12:22:49.278Z" agent="Mozilla/5.0 (Windows NT 10.0; Win64; x64) AppleWebKit/537.36 (KHTML, like Gecko) draw.io/24.2.5 Chrome/120.0.6099.109 Electron/28.1.0 Safari/537.36" etag="G8haTO82dG35DEZyCas9" version="24.2.5" type="device">
  <diagram id="R2lEEEUBdFMjLlhIrx00" name="Page-1">
    <mxGraphModel dx="875" dy="532" grid="1" gridSize="10" guides="1" tooltips="1" connect="1" arrows="1" fold="1" page="1" pageScale="1" pageWidth="850" pageHeight="1100" math="0" shadow="0" extFonts="Permanent Marker^https://fonts.googleapis.com/css?family=Permanent+Marker">
      <root>
        <mxCell id="0" />
        <mxCell id="1" parent="0" />
        <mxCell id="Ug88j3oGZVzIs3uNMmil-1" value="&lt;b&gt;guests&lt;/b&gt;" style="swimlane;childLayout=stackLayout;horizontal=1;startSize=50;horizontalStack=0;rounded=1;fontSize=14;fontStyle=0;strokeWidth=2;resizeParent=0;resizeLast=1;shadow=0;dashed=0;align=center;arcSize=4;whiteSpace=wrap;html=1;" parent="1" vertex="1">
          <mxGeometry x="40" y="40" width="160" height="120" as="geometry" />
        </mxCell>
        <mxCell id="Ug88j3oGZVzIs3uNMmil-2" value="id (PK)&lt;div&gt;name&lt;/div&gt;&lt;div&gt;city&lt;/div&gt;&lt;div&gt;telephone&lt;/div&gt;" style="align=left;strokeColor=none;fillColor=none;spacingLeft=4;fontSize=12;verticalAlign=top;resizable=0;rotatable=0;part=1;html=1;" parent="Ug88j3oGZVzIs3uNMmil-1" vertex="1">
          <mxGeometry y="50" width="160" height="70" as="geometry" />
        </mxCell>
        <mxCell id="Ug88j3oGZVzIs3uNMmil-3" value="&lt;b&gt;reservations&lt;/b&gt;" style="swimlane;childLayout=stackLayout;horizontal=1;startSize=50;horizontalStack=0;rounded=1;fontSize=14;fontStyle=0;strokeWidth=2;resizeParent=0;resizeLast=1;shadow=0;dashed=0;align=center;arcSize=4;whiteSpace=wrap;html=1;" parent="1" vertex="1">
          <mxGeometry x="580" y="40" width="160" height="120" as="geometry" />
        </mxCell>
        <mxCell id="Ug88j3oGZVzIs3uNMmil-4" value="id (PK)&lt;div&gt;name&lt;/div&gt;&lt;div&gt;date&lt;/div&gt;&lt;div&gt;time&lt;/div&gt;" style="align=left;strokeColor=none;fillColor=none;spacingLeft=4;fontSize=12;verticalAlign=top;resizable=0;rotatable=0;part=1;html=1;" parent="Ug88j3oGZVzIs3uNMmil-3" vertex="1">
          <mxGeometry y="50" width="160" height="70" as="geometry" />
        </mxCell>
        <mxCell id="Ug88j3oGZVzIs3uNMmil-7" value="&lt;b&gt;rooms&lt;/b&gt;" style="swimlane;childLayout=stackLayout;horizontal=1;startSize=50;horizontalStack=0;rounded=1;fontSize=14;fontStyle=0;strokeWidth=2;resizeParent=0;resizeLast=1;shadow=0;dashed=0;align=center;arcSize=4;whiteSpace=wrap;html=1;" parent="1" vertex="1">
          <mxGeometry x="340" y="260" width="160" height="140" as="geometry" />
        </mxCell>
        <mxCell id="Ug88j3oGZVzIs3uNMmil-8" value="id (PK)&lt;div&gt;&lt;span style=&quot;background-color: initial;&quot;&gt;score&amp;nbsp;&lt;/span&gt;&lt;br&gt;&lt;/div&gt;&lt;div&gt;room_no(FK)&lt;/div&gt;&lt;div&gt;reservation_id(FK)&lt;/div&gt;" style="align=left;strokeColor=none;fillColor=none;spacingLeft=4;fontSize=12;verticalAlign=top;resizable=0;rotatable=0;part=1;html=1;" parent="Ug88j3oGZVzIs3uNMmil-7" vertex="1">
          <mxGeometry y="50" width="160" height="90" as="geometry" />
        </mxCell>
        <mxCell id="Ug88j3oGZVzIs3uNMmil-16" value="" style="edgeStyle=orthogonalEdgeStyle;fontSize=12;html=1;endArrow=ERoneToMany;startArrow=ERoneToMany;rounded=0;exitX=0.375;exitY=0;exitDx=0;exitDy=0;exitPerimeter=0;entryX=1;entryY=0.5;entryDx=0;entryDy=0;" parent="1" source="Ug88j3oGZVzIs3uNMmil-7" target="Ug88j3oGZVzIs3uNMmil-2" edge="1">
          <mxGeometry width="100" height="100" relative="1" as="geometry">
            <mxPoint x="310" y="210" as="sourcePoint" />
            <mxPoint x="230" y="130" as="targetPoint" />
          </mxGeometry>
        </mxCell>
        <mxCell id="Ug88j3oGZVzIs3uNMmil-28" value="" style="fontSize=12;html=1;endArrow=ERoneToMany;startArrow=ERzeroToMany;rounded=0;entryX=0.5;entryY=0;entryDx=0;entryDy=0;exitX=0;exitY=0.5;exitDx=0;exitDy=0;edgeStyle=orthogonalEdgeStyle;" parent="1" source="Ug88j3oGZVzIs3uNMmil-4" target="Ug88j3oGZVzIs3uNMmil-7" edge="1">
          <mxGeometry width="100" height="100" relative="1" as="geometry">
            <mxPoint x="525" y="120" as="sourcePoint" />
            <mxPoint x="420" y="250" as="targetPoint" />
          </mxGeometry>
        </mxCell>
        <mxCell id="tYJKt2TJLYILBFtgtl5l-6" value="" style="edgeStyle=entityRelationEdgeStyle;fontSize=12;html=1;endArrow=ERoneToMany;rounded=0;entryX=0;entryY=0.5;entryDx=0;entryDy=0;" edge="1" parent="1" target="Ug88j3oGZVzIs3uNMmil-3">
          <mxGeometry width="100" height="100" relative="1" as="geometry">
            <mxPoint x="200" y="100" as="sourcePoint" />
            <mxPoint x="300" as="targetPoint" />
          </mxGeometry>
        </mxCell>
        <mxCell id="tYJKt2TJLYILBFtgtl5l-7" value="one to many relationship" style="whiteSpace=wrap;html=1;align=center;" vertex="1" parent="1">
          <mxGeometry x="340" y="70" width="100" height="40" as="geometry" />
        </mxCell>
        <mxCell id="tYJKt2TJLYILBFtgtl5l-8" value="" style="edgeStyle=entityRelationEdgeStyle;fontSize=12;html=1;endArrow=ERoneToMany;rounded=0;entryX=0;entryY=0.75;entryDx=0;entryDy=0;" edge="1" parent="1" target="Ug88j3oGZVzIs3uNMmil-4">
          <mxGeometry width="100" height="100" relative="1" as="geometry">
            <mxPoint x="500" y="320" as="sourcePoint" />
            <mxPoint x="870" y="320" as="targetPoint" />
          </mxGeometry>
        </mxCell>
        <mxCell id="tYJKt2TJLYILBFtgtl5l-9" value="one to many relationship" style="whiteSpace=wrap;html=1;align=center;" vertex="1" parent="1">
          <mxGeometry x="540" y="220" width="100" height="40" as="geometry" />
        </mxCell>
        <mxCell id="tYJKt2TJLYILBFtgtl5l-12" value="many to one relationship" style="whiteSpace=wrap;html=1;align=center;" vertex="1" parent="1">
          <mxGeometry x="300" y="170" width="100" height="40" as="geometry" />
        </mxCell>
        <mxCell id="tYJKt2TJLYILBFtgtl5l-13" value="many to one relationship" style="whiteSpace=wrap;html=1;align=center;" vertex="1" parent="1">
          <mxGeometry x="420" y="160" width="100" height="40" as="geometry" />
        </mxCell>
        <mxCell id="tYJKt2TJLYILBFtgtl5l-18" value="Explanation of ER" style="swimlane;childLayout=stackLayout;horizontal=1;startSize=50;horizontalStack=0;rounded=1;fontSize=14;fontStyle=0;strokeWidth=2;resizeParent=0;resizeLast=1;shadow=0;dashed=0;align=center;arcSize=4;whiteSpace=wrap;html=1;" vertex="1" parent="1">
          <mxGeometry x="30" y="530" width="730" height="240" as="geometry" />
        </mxCell>
        <mxCell id="tYJKt2TJLYILBFtgtl5l-19" value="&lt;p class=&quot;MsoNormal&quot;&gt;Each Guest can have multiple Reservations (One-to-Many&amp;nbsp;relationship).&lt;/p&gt;&lt;p class=&quot;MsoNormal&quot;&gt;Each Room can have multiple Reservations (One-to-Many&amp;nbsp;relationship).&lt;/p&gt;&lt;p class=&quot;MsoNormal&quot;&gt;Each Reservation is associated with exactly one Guest&amp;nbsp;(Many-to-One relationship).&lt;/p&gt;&lt;p class=&quot;MsoNormal&quot;&gt;Each Reservation is associated with exactly one Room&amp;nbsp;&lt;b&gt;(Many-to-One relationship)&lt;/b&gt;.&lt;/p&gt;" style="align=left;strokeColor=none;fillColor=none;spacingLeft=4;fontSize=12;verticalAlign=top;resizable=0;rotatable=0;part=1;html=1;" vertex="1" parent="tYJKt2TJLYILBFtgtl5l-18">
          <mxGeometry y="50" width="730" height="190" as="geometry" />
        </mxCell>
      </root>
    </mxGraphModel>
  </diagram>
</mxfile>
